<svg xmlns="http://www.w3.org/2000/svg" viewBox="0 0 64 64" role="img" aria-label="Ethan Cao studio mark">
  <defs>
    <linearGradient id="lg" x1="0" y1="0" x2="1" y2="1">
      <stop offset="0" stop-color="#ff5e7d"/>
      <stop offset="0.52" stop-color="#8b6cff"/>
      <stop offset="1" stop-color="#2ee6c4"/>
    </linearGradient>
  </defs>
  <rect width="64" height="64" rx="15" fill="#0f1017"/>
  <!-- geometric fox head -->
  <path d="M14 16 L26 22 L20 30 Z" fill="url(#lg)" opacity="0.9"/>
  <path d="M50 16 L38 22 L44 30 Z" fill="url(#lg)" opacity="0.9"/>
  <path d="M16 24 L32 20 L48 24 L40 40 L32 46 L24 40 Z" fill="url(#lg)"/>
  <path d="M32 20 L48 24 L40 40 Z" fill="#000" opacity="0.16"/>
  <!-- snout -->
  <path d="M24 40 L32 46 L40 40 L32 43 Z" fill="#0f1017"/>
  <!-- eyes -->
  <path d="M25 28 l4 2 -4 2 z" fill="#0f1017"/>
  <path d="M39 28 l-4 2 4 2 z" fill="#0f1017"/>
  <!-- teal scarf accent -->
  <path d="M24 41 L32 47 L40 41 L40 44 L32 50 L24 44 Z" fill="#2ee6c4"/>
</svg>
